<svg width="24" height="24" viewBox="0 0 24 24" fill="none" xmlns="http://www.w3.org/2000/svg">
<g clip-path="url(#clip0_1199_4431)">
<path d="M6 19.5V21H3.75V19.5H6ZM6 11.25H3.75V21L3.59692 20.9919C2.89076 20.9204 2.32965 20.3592 2.25806 19.6531L2.25 19.5V11.25C2.25 10.4216 2.92157 9.75 3.75 9.75H6C6.82843 9.75 7.5 10.4216 7.5 11.25V19.5C7.5 20.2767 6.90958 20.9152 6.15308 20.9919L6 21V11.25Z" fill="#777777"/>
<path d="M13.5 19.5V21H10.5V19.5H13.5ZM13.5 7.5H10.5V21C9.72326 21 9.08475 20.4096 9.00806 19.6531L9 19.5V7.5C9 6.67157 9.67157 6 10.5 6H13.5L13.6531 6.00806C14.4096 6.08475 15 6.72326 15 7.5V19.5L14.9919 19.6531C14.9152 20.4096 14.2767 21 13.5 21V7.5Z" fill="#777777"/>
<path d="M20.25 19.5V21H18V19.5H20.25ZM20.25 3.75H18V21L17.8469 20.9919C17.0904 20.9152 16.5 20.2767 16.5 19.5V3.75C16.5 2.92157 17.1716 2.25 18 2.25H20.25C21.0784 2.25 21.75 2.92157 21.75 3.75V19.5C21.75 20.2767 21.1596 20.9152 20.4031 20.9919L20.25 21V3.75Z" fill="#777777"/>
</g>
<defs>
<clipPath id="clip0_1199_4431">
<rect width="24" height="24" fill="white"/>
</clipPath>
</defs>
</svg>
