<?xml version="1.0" standalone="no"?><!DOCTYPE svg PUBLIC "-//W3C//DTD SVG 1.1//EN" "http://www.w3.org/Graphics/SVG/1.1/DTD/svg11.dtd"><svg t="1731245485559" class="icon" viewBox="0 0 1024 1024" version="1.1" xmlns="http://www.w3.org/2000/svg" p-id="1120" xmlns:xlink="http://www.w3.org/1999/xlink" width="200" height="200"><path d="M872 792.00000031l-120 0c-22.00000031 0-40.00000031-18-40.00000031-40.00000031 0-22.00000031 18-40.00000031 40.00000031-40.00000031l100.00000031 0c12 0 19.99999969-7.99999969 19.99999969-19.99999969L872 132.00000031c0-12-7.99999969-19.99999969-19.99999969-19.99999969L452 111.99999969c-12 0-19.99999969 7.99999969-19.99999969 19.99999969l0 19.99999968c0 22.00000031-18 40.00000031-40.00000031 40.00000032-22.00000031 0-40.00000031-18-40.00000031-40.00000032L351.99999969 111.99999969c0-43.99999969 36-79.99999969 79.99999968-79.99999969l439.99999969 0c43.99999969 0 79.99999969 36 79.99999969 79.99999969l0 600C951.99999969 756.00000031 915.99999969 792.00000031 872 792.00000031zM672.00000031 312.00000031l0 600c0 43.99999969-36 79.99999969-79.99999968 79.99999969L152 992c-43.99999969 0-79.99999969-36-79.99999969-79.99999969L72.00000031 312.00000031c0-43.99999969 36-79.99999969 79.99999969-79.99999968l439.99999969 0C636.00000031 231.99999969 672.00000031 267.99999969 672.00000031 312.00000031zM572 312.00000031L171.99999969 312.00000031c-12 0-19.99999969 7.99999969-19.99999969 19.99999969l0 559.99999969c0 12 7.99999969 19.99999969 19.99999969 19.99999969l400.00000031 0c12 0 19.99999969-7.99999969 19.99999969-19.99999969L591.99999969 332C591.99999969 320 584 312.00000031 572 312.00000031z" fill="#333333" p-id="1121"></path></svg>