<svg width="20" height="20" viewBox="0 0 20 20" fill="none" xmlns="http://www.w3.org/2000/svg">
<path d="M12.2236 1.875C12.7616 1.875 13.24 2.21913 13.4102 2.72949L13.958 4.375H17.5V5.625H15.5654L15.1133 15.1191C15.0497 16.452 13.9506 17.5 12.6162 17.5H7.38379C6.04939 17.5 4.95031 16.452 4.88672 15.1191L4.43457 5.625H2.5V4.375H6.04199L6.58984 2.72949C6.76002 2.21913 7.23837 1.875 7.77637 1.875H12.2236ZM6.13477 15.0596C6.16655 15.726 6.71658 16.25 7.38379 16.25H12.6162C13.2834 16.25 13.8335 15.726 13.8652 15.0596L14.3145 5.625H5.68555L6.13477 15.0596ZM9.06152 14.3486L7.8125 14.4004L7.52539 7.5H8.77637L9.06152 14.3486ZM12.1865 14.4004L10.9375 14.3486L11.2227 7.5H12.4736L12.1865 14.4004ZM7.35938 4.375H12.6406L12.2236 3.125H7.77637L7.35938 4.375Z" fill="#0374E9"/>
</svg>
