<svg width="20" height="20" viewBox="0 0 20 20" fill="none" xmlns="http://www.w3.org/2000/svg">
<g clip-path="url(#clip0_1176_22737)">
<path d="M12.5249 7.50079H18.7792C18.8999 7.50363 19.0188 7.5302 19.1291 7.579C19.2395 7.6278 19.3391 7.69786 19.4224 7.78519C19.5056 7.87251 19.5709 7.97539 19.6144 8.08793C19.6579 8.20048 19.6787 8.32049 19.6758 8.44112V18.752C19.6787 18.8726 19.6579 18.9926 19.6144 19.1052C19.5709 19.2177 19.5056 19.3206 19.4224 19.4079C19.3391 19.4952 19.2395 19.5653 19.1291 19.6141C19.0188 19.6629 18.8999 19.6895 18.7792 19.6923H8.06382C7.94319 19.6895 7.82431 19.6629 7.71396 19.6141C7.60361 19.5653 7.50396 19.4952 7.42069 19.4079C7.33743 19.3206 7.27219 19.2177 7.2287 19.1052C7.1852 18.9926 7.16432 18.8726 7.16722 18.752V12.1915H0.90199C0.781365 12.1887 0.662482 12.1621 0.552132 12.1133C0.441782 12.0645 0.342129 11.9944 0.258865 11.9071C0.175602 11.8198 0.110361 11.7169 0.066869 11.6044C0.0233773 11.4918 0.00248755 11.3718 0.00539336 11.2512V0.940327C0.00248755 0.819704 0.0233773 0.699691 0.066869 0.587144C0.110361 0.474597 0.175602 0.371722 0.258865 0.284398C0.342129 0.197074 0.441782 0.127011 0.552132 0.0782126C0.662482 0.0294145 0.781365 0.00283745 0.90199 0L11.6283 0C11.749 0.00283745 11.8678 0.0294145 11.9782 0.0782126C12.0885 0.127011 12.1882 0.197074 12.2715 0.284398C12.3547 0.371722 12.42 0.474597 12.4635 0.587144C12.5069 0.699691 12.5278 0.819704 12.5249 0.940327V7.50079ZM0.90199 11.2512H11.6283V0.940346H0.90199V11.2512V11.2512ZM13.1263 10.9341L11.1582 16.2918H12.0329L12.514 14.9141H14.7008L15.1819 16.2918H16.0239L14.0448 10.9341H13.1263ZM12.6999 14.2143L13.5528 11.787L14.4603 14.2143H12.6999ZM5.88795 2.18683H6.56586V3.55358H9.16816V7.17277H8.49026V6.74635H6.56586V9.26115H5.92074V6.74635H4.05101V7.17277H3.37311V3.55358H5.92074L5.88795 2.18683ZM4.05103 6.04656H5.90982V4.25337H4.05101L4.05103 6.04656ZM6.56586 6.04656H8.49026V4.25337H6.56586V6.04656Z" fill="#88909D"/>
</g>
<defs>
<clipPath id="clip0_1176_22737">
<rect width="19.6923" height="19.6923" fill="white"/>
</clipPath>
</defs>
</svg>
