<svg width="20" height="20" viewBox="0 0 20 20" fill="none" xmlns="http://www.w3.org/2000/svg">
<path d="M10.4177 1.88574C13.1393 2.02366 15.5059 3.50144 16.8748 5.67188V4.375H18.1248V8.75H16.7595C16.1715 5.55005 13.3697 3.12501 9.99976 3.125C6.62989 3.12512 3.82792 5.55009 3.23999 8.75H1.97046C2.5717 4.85622 5.93764 1.87513 9.99976 1.875L10.4177 1.88574Z" fill="#0374E9"/>
<path d="M9.67773 18.1143C6.95618 17.9763 4.58954 16.4986 3.2207 14.3281V15.625H1.9707V11.25H3.33594C3.92391 14.45 6.72576 16.875 10.0957 16.875C13.4656 16.8749 16.2675 14.4499 16.8555 11.25H18.125C17.5238 15.1438 14.1578 18.1249 10.0957 18.125L9.67773 18.1143Z" fill="#0374E9"/>
</svg>
