<svg xmlns="http://www.w3.org/2000/svg" xmlns:xlink="http://www.w3.org/1999/xlink" fill="none" version="1.1" width="20.70703125" height="20.70703125" viewBox="0 0 20.70703125 20.70703125"><g><path d="M4.66015625,7.7204833984375L4.66015625,7.1204833984375Q4.66015625,7.0712376784375,4.6697636088,7.0229382184375Q4.679370968,6.9746387584375,4.698216479,6.9291416384375Q4.717061989,6.8836445484375,4.744421437,6.8426982584375Q4.77178088,6.8017519684375,4.80660285,6.7669299984375Q4.84142482,6.7321080284375,4.88237113,6.7047485854375Q4.9233174,6.6773891374375,4.96881449,6.6585436274375Q5.01431161,6.6396981164375,5.06261107,6.6300907572375Q5.11091053,6.6204833984375,5.16015625,6.6204833984375L5.76015625,6.6204833984375Q5.80940185,6.6204833984375,5.85770135,6.6300907572375Q5.9060007500000005,6.6396981164375,5.95149775,6.6585436274375Q5.9969949499999995,6.6773891374375,6.03794125,6.7047485854375Q6.07888745,6.7321080284375,6.11370955,6.7669299984375Q6.14853145,6.8017519684375,6.17589095,6.8426982784375Q6.20325025,6.8836445484375,6.2220958500000005,6.9291416384375Q6.24094145,6.9746387584375,6.2505488499999995,7.0229382184375Q6.26015615,7.0712376784375,6.26015625,7.1204833984375L6.26015625,7.7204833984375Q6.26015615,7.7697289984375,6.2505488499999995,7.8180284984375Q6.24094145,7.8663278984375005,6.2220958500000005,7.9118248984375Q6.20325025,7.9573220984374995,6.17589095,7.9982683984375Q6.14853145,8.0392145984375,6.11370955,8.0740366984375Q6.07888745,8.1088585984375,6.03794125,8.1362180984375Q5.9969949499999995,8.1635773984375,5.95149795,8.1824229984375Q5.90600085,8.2012685984375,5.85770135,8.2108759984375Q5.80940185,8.2204832984375,5.76015625,8.2204833984375L5.16015625,8.2204833984375Q5.11091053,8.2204832984375,5.06261107,8.2108759984375Q5.01431161,8.2012685984375,4.96881449,8.1824229984375Q4.9233174,8.1635773984375,4.88237111,8.1362180984375Q4.84142482,8.1088585984375,4.80660285,8.0740366984375Q4.77178088,8.0392145984375,4.744421437,7.9982683984375Q4.717061989,7.9573220984374995,4.698216479,7.9118250984375Q4.679370968,7.8663279984375,4.6697636088,7.8180284984375Q4.66015625,7.7697289984375,4.66015625,7.7204833984375ZM4.66015625,10.8207640984375L4.66015625,10.2207641984375Q4.66015625,10.1715182984375,4.6697636088,10.1232187984375Q4.679370968,10.0749189984375,4.698216479,10.0294217984375Q4.717061989,9.9839245984375,4.744421437,9.9429783984375Q4.77178088,9.9020323984375,4.80660285,9.8672103984375Q4.84142482,9.8323883984375,4.88237113,9.805029398437501Q4.9233174,9.7776698984375,4.96881449,9.7588243984375Q5.01431161,9.7399787984375,5.06261107,9.7303714984375Q5.11091053,9.7207641984375,5.16015625,9.7207641984375L5.76015625,9.7207641984375Q5.80940185,9.7207641984375,5.85770135,9.7303714984375Q5.9060007500000005,9.7399787984375,5.95149775,9.7588240984375Q5.9969949499999995,9.7776696984375,6.03794125,9.8050291984375Q6.07888745,9.8323883984375,6.11370955,9.8672103984375Q6.14853145,9.9020323984375,6.17589095,9.9429783984375Q6.20325025,9.9839245984375,6.2220958500000005,10.0294217984375Q6.24094145,10.0749189984375,6.2505488499999995,10.1232184984375Q6.26015615,10.1715182984375,6.26015625,10.2207641984375L6.26015625,10.8207640984375Q6.26015615,10.8700093984375,6.2505488499999995,10.9183086984375Q6.24094145,10.9666079984375,6.2220958500000005,11.0121054984375Q6.20325025,11.0576028984375,6.17589095,11.0985488984375Q6.14853145,11.1394953984375,6.11370955,11.1743173984375Q6.07888745,11.2091388984375,6.03794125,11.2364983984375Q5.9969949499999995,11.263857798437499,5.95149795,11.282702898437499Q5.90600085,11.3015489984375,5.85770135,11.3111562984375Q5.80940185,11.3207635984375,5.76015625,11.3207640984375L5.16015625,11.3207640984375Q5.11091053,11.3207635984375,5.06261107,11.3111562984375Q5.01431161,11.3015489984375,4.96881449,11.282702898437499Q4.9233174,11.263857798437499,4.88237111,11.2364983984375Q4.84142482,11.2091388984375,4.80660285,11.1743173984375Q4.77178088,11.1394953984375,4.744421437,11.0985488984375Q4.717061989,11.0576028984375,4.698216479,11.0121054984375Q4.679370968,10.9666079984375,4.6697636088,10.9183086984375Q4.66015625,10.8700093984375,4.66015625,10.8207640984375ZM7.92285155,7.7204833984375L7.92285155,7.1204833984375Q7.92285155,7.0712376784375,7.93245885,7.0229382184375Q7.9420661500000005,6.9746387584375,7.96091175,6.9291416384375Q7.97975735,6.8836445484375,8.00711655,6.8426982584375Q8.03447585,6.8017519684375,8.06929775,6.7669299984375Q8.10411975,6.7321080284375,8.14506575,6.7047485854375Q8.186012250000001,6.6773891374375,8.23150945,6.6585436274375Q8.27700665,6.6396981164375,8.32530615,6.6300907572375Q8.37360575,6.6204833984375,8.42285155,6.6204833984375L9.022851450000001,6.6204833984375Q9.072096850000001,6.6204833984375,9.120396150000001,6.6300907572375Q9.168695450000001,6.6396981164375,9.21419285,6.6585436274375Q9.25968985,6.6773891374375,9.30063625,6.7047485854375Q9.34158225,6.7321080284375,9.376404749999999,6.7669299984375Q9.41122625,6.8017519684375,9.43858625,6.8426982784375Q9.46594525,6.8836445484375,9.48479085,6.9291416384375Q9.50363635,6.9746387584375,9.51324365,7.0229382184375Q9.522850949999999,7.0712376784375,9.522851450000001,7.1204833984375L9.522851450000001,7.7204833984375Q9.522850949999999,7.7697289984375,9.51324365,7.8180284984375Q9.50363635,7.8663278984375005,9.48479085,7.9118248984375Q9.46594525,7.9573220984374995,9.43858575,7.9982683984375Q9.41122625,8.0392145984375,9.376404749999999,8.0740366984375Q9.34158225,8.1088585984375,9.30063625,8.1362180984375Q9.25968935,8.1635773984375,9.214192350000001,8.1824229984375Q9.168695450000001,8.2012685984375,9.120396150000001,8.2108759984375Q9.072096850000001,8.2204832984375,9.022851450000001,8.2204833984375L8.42285155,8.2204833984375Q8.37360575,8.2204832984375,8.32530615,8.2108759984375Q8.27700665,8.2012685984375,8.23150925,8.1824229984375Q8.186012250000001,8.1635773984375,8.14506605,8.1362180984375Q8.10411975,8.1088585984375,8.06929775,8.0740366984375Q8.03447585,8.0392145984375,8.00711655,7.9982683984375Q7.97975705,7.9573220984374995,7.9609115500000005,7.9118250984375Q7.9420661500000005,7.8663279984375,7.93245885,7.8180284984375Q7.92285155,7.7697289984375,7.92285155,7.7204833984375ZM7.92285155,10.8207640984375L7.92285155,10.2207641984375Q7.92285155,10.1715182984375,7.93245885,10.1232187984375Q7.9420661500000005,10.0749189984375,7.96091175,10.0294217984375Q7.97975735,9.9839245984375,8.00711655,9.9429783984375Q8.03447585,9.9020323984375,8.06929775,9.8672103984375Q8.10411975,9.8323883984375,8.14506575,9.805029398437501Q8.186012250000001,9.7776698984375,8.23150945,9.7588243984375Q8.27700665,9.7399787984375,8.32530615,9.7303714984375Q8.37360575,9.7207641984375,8.42285155,9.7207641984375L9.022851450000001,9.7207641984375Q9.072096850000001,9.7207641984375,9.120396150000001,9.7303714984375Q9.168695450000001,9.7399787984375,9.21419285,9.7588240984375Q9.25968985,9.7776696984375,9.30063625,9.8050291984375Q9.34158225,9.8323883984375,9.376404749999999,9.8672103984375Q9.41122625,9.9020323984375,9.43858625,9.9429783984375Q9.46594525,9.9839245984375,9.48479085,10.0294217984375Q9.50363635,10.0749189984375,9.51324365,10.1232184984375Q9.522850949999999,10.1715182984375,9.522851450000001,10.2207641984375L9.522851450000001,10.8207640984375Q9.522850949999999,10.8700093984375,9.51324365,10.9183086984375Q9.50363635,10.9666079984375,9.48479085,11.0121054984375Q9.46594525,11.0576028984375,9.43858575,11.0985488984375Q9.41122625,11.1394953984375,9.376404749999999,11.1743173984375Q9.34158225,11.2091388984375,9.30063625,11.2364983984375Q9.25968935,11.263857798437499,9.214192350000001,11.282702898437499Q9.168695450000001,11.3015489984375,9.120396150000001,11.3111562984375Q9.072096850000001,11.3207635984375,9.022851450000001,11.3207640984375L8.42285155,11.3207640984375Q8.37360575,11.3207635984375,8.32530615,11.3111562984375Q8.27700665,11.3015489984375,8.23150925,11.282702898437499Q8.186012250000001,11.263857798437499,8.14506605,11.2364983984375Q8.10411975,11.2091388984375,8.06929775,11.1743173984375Q8.03447585,11.1394953984375,8.00711655,11.0985488984375Q7.97975705,11.0576028984375,7.9609115500000005,11.0121054984375Q7.9420661500000005,10.9666079984375,7.93245885,10.9183086984375Q7.92285155,10.8700093984375,7.92285155,10.8207640984375ZM11.18554685,7.7204833984375L11.18554685,7.1204833984375Q11.18554685,7.0712376784375,11.19515415,7.0229382184375Q11.20476155,6.9746387584375,11.22360705,6.9291416384375Q11.24245265,6.8836445484375,11.269811650000001,6.8426982584375Q11.29717115,6.8017519684375,11.331993149999999,6.7669299984375Q11.36681505,6.7321080284375,11.40776155,6.7047485854375Q11.44870755,6.6773891374375,11.49420455,6.6585436274375Q11.539701449999999,6.6396981164375,11.58800125,6.6300907572375Q11.63630105,6.6204833984375,11.68554685,6.6204833984375L12.28554675,6.6204833984375Q12.33479215,6.6204833984375,12.38309195,6.6300907572375Q12.43139075,6.6396981164375,12.47688775,6.6585436274375Q12.52238465,6.6773891374375,12.56333165,6.7047485854375Q12.60427765,6.7321080284375,12.63910005,6.7669299984375Q12.67392155,6.8017519684375,12.70128055,6.8426982784375Q12.72864055,6.8836445484375,12.74748615,6.9291416384375Q12.76633265,6.9746387584375,12.77593995,7.0229382184375Q12.78554725,7.0712376784375,12.78554725,7.1204833984375L12.78554725,7.7204833984375Q12.78554725,7.7697289984375,12.77593995,7.8180284984375Q12.76633265,7.8663278984375005,12.74748615,7.9118248984375Q12.72864055,7.9573220984374995,12.70128155,7.9982683984375Q12.67392155,8.0392145984375,12.63910005,8.0740366984375Q12.60427765,8.1088585984375,12.56333165,8.1362180984375Q12.52238465,8.1635773984375,12.47688775,8.1824229984375Q12.43139075,8.2012685984375,12.38309095,8.2108759984375Q12.33479215,8.2204832984375,12.28554675,8.2204833984375L11.68554685,8.2204833984375Q11.63630105,8.2204832984375,11.58800125,8.2108759984375Q11.539701449999999,8.2012685984375,11.49420455,8.1824229984375Q11.44870755,8.1635773984375,11.407761050000001,8.1362180984375Q11.36681505,8.1088585984375,11.331993149999999,8.0740366984375Q11.29717115,8.0392145984375,11.269811650000001,7.9982683984375Q11.24245215,7.9573220984374995,11.22360655,7.9118250984375Q11.20476155,7.8663279984375,11.19515415,7.8180284984375Q11.18554685,7.7697289984375,11.18554685,7.7204833984375ZM14.44726565,7.7204833984375L14.44726565,7.1204833984375Q14.44726565,7.0712376784375,14.45687295,7.0229382184375Q14.46648025,6.9746387584375,14.48532485,6.9291416384375Q14.50417045,6.8836445484375,14.53153035,6.8426982584375Q14.55888935,6.8017519684375,14.59371185,6.7669299984375Q14.62853435,6.7321080284375,14.66948025,6.7047485854375Q14.71042625,6.6773891374375,14.75592325,6.6585436274375Q14.80142025,6.6396981164375,14.84972025,6.6300907572375Q14.89802025,6.6204833984375,14.94726525,6.6204833984375L15.54726625,6.6204833984375Q15.59651125,6.6204833984375,15.64480925,6.6300907572375Q15.69310825,6.6396981164375,15.73860525,6.6585436274375Q15.78410325,6.6773891374375,15.82505025,6.7047485854375Q15.86599625,6.7321080284375,15.90081925,6.7669299984375Q15.93564025,6.8017519684375,15.96299925,6.8426982784375Q15.99035825,6.8836445484375,16.00920525,6.9291416384375Q16.028049250000002,6.9746387584375,16.037657250000002,7.0229382184375Q16.047265250000002,7.0712376784375,16.04726625,7.1204833984375L16.04726625,7.7204833984375Q16.047265250000002,7.7697289984375,16.037657250000002,7.8180284984375Q16.028049250000002,7.8663278984375005,16.00920525,7.9118248984375Q15.99035825,7.9573220984374995,15.96299925,7.9982683984375Q15.93564025,8.0392145984375,15.90081925,8.0740366984375Q15.86599625,8.1088585984375,15.82504925,8.1362180984375Q15.78410325,8.1635773984375,15.73860725,8.1824229984375Q15.69310925,8.2012685984375,15.64481025,8.2108759984375Q15.59651125,8.2204832984375,15.54726625,8.2204833984375L14.94726525,8.2204833984375Q14.89802025,8.2204832984375,14.84972025,8.2108759984375Q14.80142025,8.2012685984375,14.75592325,8.1824229984375Q14.71042625,8.1635773984375,14.66947925,8.1362180984375Q14.62853435,8.1088585984375,14.59371185,8.0740366984375Q14.55888935,8.0392145984375,14.53153035,7.9982683984375Q14.50417045,7.9573220984374995,14.48532485,7.9118250984375Q14.46648025,7.8663279984375,14.45687295,7.8180284984375Q14.44726565,7.7697289984375,14.44726565,7.7204833984375ZM11.18554685,10.8207640984375L11.18554685,10.2207641984375Q11.18554685,10.1715182984375,11.19515415,10.1232187984375Q11.20476155,10.0749189984375,11.22360705,10.0294217984375Q11.24245265,9.9839245984375,11.269811650000001,9.9429783984375Q11.29717115,9.9020323984375,11.331993149999999,9.8672103984375Q11.36681505,9.8323883984375,11.40776155,9.805029398437501Q11.44870755,9.7776698984375,11.49420455,9.7588243984375Q11.539701449999999,9.7399787984375,11.58800125,9.7303714984375Q11.63630105,9.7207641984375,11.68554685,9.7207641984375L12.28554675,9.7207641984375Q12.33479215,9.7207641984375,12.38309195,9.7303714984375Q12.43139075,9.7399787984375,12.47688775,9.7588240984375Q12.52238465,9.7776696984375,12.56333165,9.8050291984375Q12.60427765,9.8323883984375,12.63910005,9.8672103984375Q12.67392155,9.9020323984375,12.70128055,9.9429783984375Q12.72864055,9.9839245984375,12.74748615,10.0294217984375Q12.76633265,10.0749189984375,12.77593995,10.1232184984375Q12.78554725,10.1715182984375,12.78554725,10.2207641984375L12.78554725,10.8207640984375Q12.78554725,10.8700093984375,12.77593995,10.9183086984375Q12.76633265,10.9666079984375,12.74748615,11.0121054984375Q12.72864055,11.0576028984375,12.70128155,11.0985488984375Q12.67392155,11.1394953984375,12.63910005,11.1743173984375Q12.60427765,11.2091388984375,12.56333165,11.2364983984375Q12.52238465,11.263857798437499,12.47688775,11.282702898437499Q12.43139075,11.3015489984375,12.38309095,11.3111562984375Q12.33479215,11.3207635984375,12.28554675,11.3207640984375L11.68554685,11.3207640984375Q11.63630105,11.3207635984375,11.58800125,11.3111562984375Q11.539701449999999,11.3015489984375,11.49420455,11.282702898437499Q11.44870755,11.263857798437499,11.407761050000001,11.2364983984375Q11.36681505,11.2091388984375,11.331993149999999,11.1743173984375Q11.29717115,11.1394953984375,11.269811650000001,11.0985488984375Q11.24245215,11.0576028984375,11.22360655,11.0121054984375Q11.20476155,10.9666079984375,11.19515415,10.9183086984375Q11.18554685,10.8700093984375,11.18554685,10.8207640984375ZM14.44726565,10.8207640984375L14.44726565,10.2207641984375Q14.44726565,10.1715182984375,14.45687295,10.1232187984375Q14.46648025,10.0749189984375,14.48532485,10.0294217984375Q14.50417045,9.9839245984375,14.53153035,9.9429783984375Q14.55888935,9.9020323984375,14.59371185,9.8672103984375Q14.62853435,9.8323883984375,14.66948025,9.805029398437501Q14.71042625,9.7776698984375,14.75592325,9.7588243984375Q14.80142025,9.7399787984375,14.84972025,9.7303714984375Q14.89802025,9.7207641984375,14.94726525,9.7207641984375L15.54726625,9.7207641984375Q15.59651125,9.7207641984375,15.64480925,9.7303714984375Q15.69310825,9.7399787984375,15.73860525,9.7588240984375Q15.78410325,9.7776696984375,15.82505025,9.8050291984375Q15.86599625,9.8323883984375,15.90081925,9.8672103984375Q15.93564025,9.9020323984375,15.96299925,9.9429783984375Q15.99035825,9.9839245984375,16.00920525,10.0294217984375Q16.028049250000002,10.0749189984375,16.037657250000002,10.1232184984375Q16.047265250000002,10.1715182984375,16.04726625,10.2207641984375L16.04726625,10.8207640984375Q16.047265250000002,10.8700093984375,16.037657250000002,10.9183086984375Q16.028049250000002,10.9666079984375,16.00920525,11.0121054984375Q15.99035825,11.0576028984375,15.96299925,11.0985488984375Q15.93564025,11.1394953984375,15.90081925,11.1743173984375Q15.86599625,11.2091388984375,15.82504925,11.2364983984375Q15.78410325,11.263857798437499,15.73860725,11.282702898437499Q15.69310925,11.3015489984375,15.64481025,11.3111562984375Q15.59651125,11.3207635984375,15.54726625,11.3207640984375L14.94726525,11.3207640984375Q14.89802025,11.3207635984375,14.84972025,11.3111562984375Q14.80142025,11.3015489984375,14.75592325,11.282702898437499Q14.71042625,11.263857798437499,14.66947925,11.2364983984375Q14.62853435,11.2091388984375,14.59371185,11.1743173984375Q14.55888935,11.1394953984375,14.53153035,11.0985488984375Q14.50417045,11.0576028984375,14.48532485,11.0121054984375Q14.46648025,10.9666079984375,14.45687295,10.9183086984375Q14.44726565,10.8700093984375,14.44726565,10.8207640984375Z" fill="#222222" fill-opacity="1"/></g><rect x="6.4091796875" y="13.35443115234375" width="7.887460708618164" height="1.399999976158142" rx="0.5" fill="#222222" fill-opacity="1"/><ellipse cx="10.353515625" cy="10.353515625" rx="9.228515625" ry="9.228515625" fill-opacity="0" stroke-opacity="1" stroke="#222222" fill="none" stroke-width="1.5" stroke-linecap="ROUND" stroke-linejoin="round"/></svg>