<svg width="20" height="18" viewBox="0 0 20 18" fill="none" xmlns="http://www.w3.org/2000/svg">
<path d="M14.9561 0C15.6719 -6.75109e-08 16.2617 -0.000981836 16.7402 0.0380859C17.2288 0.0780087 17.6787 0.164078 18.1006 0.378906C18.7546 0.712247 19.2867 1.24447 19.6201 1.89844C19.8351 2.32031 19.921 2.77023 19.9609 3.25879C20 3.7373 19.999 4.32705 19.999 5.04297V12.3477C19.999 13.0634 20 13.6534 19.9609 14.1318C19.921 14.6203 19.8349 15.0694 19.6201 15.4912C19.2867 16.1456 18.7549 16.6782 18.1006 17.0117C17.6786 17.2267 17.2289 17.3126 16.7402 17.3525C16.2617 17.3916 15.672 17.3906 14.9561 17.3906H5.04297C4.32702 17.3906 3.73732 17.3916 3.25879 17.3525C2.77019 17.3126 2.32034 17.2267 1.89844 17.0117C1.24428 16.6782 0.712259 16.1455 0.378906 15.4912C0.1642 15.0695 0.078011 14.6202 0.0380859 14.1318C-0.000970309 13.6534 -2.36304e-07 13.0634 0 12.3477V5.04297C-4.75188e-07 4.32705 -0.00100976 3.7373 0.0380859 3.25879C0.0780378 2.7702 0.163945 2.32032 0.378906 1.89844C0.712319 1.24436 1.24435 0.712298 1.89844 0.378906C2.32035 0.163931 2.77017 0.0780345 3.25879 0.0380859C3.73732 -0.00101134 4.32702 -3.93286e-07 5.04297 0H14.9561ZM5.04297 1.73828C4.29836 1.73828 3.79169 1.73951 3.40039 1.77148C3.01944 1.80264 2.82442 1.85944 2.68848 1.92871C2.36139 2.09541 2.09543 2.3614 1.92871 2.68848C1.85945 2.82441 1.80264 3.0195 1.77148 3.40039C1.73951 3.79168 1.73828 4.29841 1.73828 5.04297V12.3477C1.73828 13.092 1.73955 13.599 1.77148 13.9902C1.8026 14.3707 1.85956 14.5662 1.92871 14.7021C2.09537 15.0291 2.36157 15.2952 2.68848 15.4619C2.82441 15.5312 3.01958 15.588 3.40039 15.6191C3.79169 15.6511 4.29836 15.6514 5.04297 15.6514H14.9561C15.7006 15.6514 16.2073 15.6511 16.5986 15.6191C16.9796 15.588 17.1746 15.5312 17.3105 15.4619C17.6377 15.2952 17.9036 15.0293 18.0703 14.7021C18.1395 14.5662 18.1964 14.371 18.2275 13.9902C18.2595 13.599 18.2607 13.092 18.2607 12.3477V5.04297C18.2607 4.29841 18.2595 3.79168 18.2275 3.40039C18.1964 3.01955 18.1396 2.82441 18.0703 2.68848C17.9036 2.36151 17.6376 2.09536 17.3105 1.92871C17.1746 1.85954 16.9793 1.8026 16.5986 1.77148C16.2073 1.73954 15.7006 1.73828 14.9561 1.73828H5.04297ZM14.7822 12.1738C15.2625 12.1738 15.6523 12.5637 15.6523 13.0439C15.6521 13.5239 15.2623 13.9131 14.7822 13.9131H5.2168C4.73692 13.9129 4.34795 13.5238 4.34766 13.0439C4.34766 12.5638 4.73674 12.174 5.2168 12.1738H14.7822ZM6.08691 7.82617C6.56708 7.82626 6.95605 8.2161 6.95605 8.69629V9.56543C6.95592 10.0455 6.567 10.4345 6.08691 10.4346H5.2168C4.73683 10.4344 4.3478 10.0454 4.34766 9.56543V8.69629C4.34766 8.21618 4.73674 7.82639 5.2168 7.82617H6.08691ZM10.4346 7.82617C10.9148 7.82618 11.3047 8.21605 11.3047 8.69629V9.56543C11.3045 10.0456 10.9147 10.4346 10.4346 10.4346H9.56543C9.08527 10.4346 8.69545 10.0456 8.69531 9.56543V8.69629C8.69531 8.21605 9.08519 7.82617 9.56543 7.82617H10.4346ZM14.7822 7.82617C15.2624 7.82627 15.6514 8.21611 15.6514 8.69629V9.56543C15.6512 10.0455 15.2623 10.4345 14.7822 10.4346H13.9121C13.4321 10.4344 13.0431 10.0454 13.043 9.56543V8.69629C13.043 8.21618 13.432 7.82638 13.9121 7.82617H14.7822ZM6.08691 3.47852C6.56695 3.4786 6.95583 3.86766 6.95605 4.34766V5.21777C6.95585 5.69779 6.56696 6.08683 6.08691 6.08691H5.2168C4.73687 6.08669 4.34787 5.6977 4.34766 5.21777V4.34766C4.34788 3.86774 4.73688 3.47874 5.2168 3.47852H6.08691ZM10.4346 3.47852C10.9147 3.47852 11.3045 3.86761 11.3047 4.34766V5.21777C11.3045 5.69784 10.9147 6.08691 10.4346 6.08691H9.56543C9.08532 6.08691 8.69552 5.69784 8.69531 5.21777V4.34766C8.69554 3.86761 9.08533 3.47852 9.56543 3.47852H10.4346ZM14.7822 3.47852C15.2622 3.47861 15.6511 3.86767 15.6514 4.34766V5.21777C15.6512 5.69778 15.2623 6.08682 14.7822 6.08691H13.9121C13.4322 6.0867 13.0432 5.69771 13.043 5.21777V4.34766C13.0432 3.86774 13.4322 3.47872 13.9121 3.47852H14.7822Z"/>
</svg>
