<svg width="14" height="18" viewBox="0 0 14 18" fill="none" xmlns="http://www.w3.org/2000/svg">
<path d="M1.46387 8.41895C1.46399 11.2488 3.75802 13.5429 6.58789 13.543C9.41782 13.543 11.7118 11.2488 11.7119 8.41895H13.1758C13.1757 11.8102 10.6136 14.6009 7.31934 14.9648V17.2031H5.85547V14.9648C2.56181 14.6004 0.000112876 11.8097 0 8.41895H1.46387ZM6.58789 0C8.60932 0 10.248 1.63873 10.248 3.66016V8.41797C10.248 10.4394 8.60932 12.0781 6.58789 12.0781C4.56664 12.0779 2.92773 10.4393 2.92773 8.41797V3.66016C2.92775 1.63887 4.56665 0.000220666 6.58789 0Z" />
</svg>
