<svg xmlns="http://www.w3.org/2000/svg" xmlns:xlink="http://www.w3.org/1999/xlink" fill="none" version="1.1" width="20.70703125" height="20.70703125" viewBox="0 0 20.70703125 20.70703125"><g transform="matrix(0,1,-1,0,20.70703125,-19.20703125)"><g transform="matrix(0,-1,1,0,0,39.9140625)"><ellipse cx="29.560546875" cy="29.560546875" rx="9.228515625" ry="9.228515625" fill-opacity="0" stroke-opacity="1" stroke="#222222" fill="none" stroke-width="1.5" stroke-linecap="ROUND" stroke-linejoin="round"/></g><path d="M26.49383952421875,6.692684515Q25.07902628421875,7.284493835,23.98794138421875,8.363533925L23.98804682421875,8.363640525000001Q23.881225644218752,8.469282625,23.82334768421875,8.607922825Q23.76546979421875,8.746563125,23.76546979421875,8.896799325Q23.76546979421875,8.970653025,23.77987802421875,9.043087725Q23.79428613421875,9.115522425,23.82254874421875,9.183754225Q23.85081136421875,9.251986025,23.89184236421875,9.313393325Q23.93287330421875,9.374800725,23.98509579421875,9.427023125Q24.03731831421875,9.479245625,24.09872549421875,9.520276525Q24.16013264421875,9.561307424999999,24.22836464421875,9.589570325Q24.29659664421875,9.617832925,24.36903134421875,9.632241225Q24.44146604121875,9.646649325,24.51531982421875,9.646649325Q24.66339293421875,9.646649325,24.80035138421875,9.590364025Q24.937309834218752,9.534078825,25.04259282421875,9.429958125L25.04269826421875,9.430064725Q25.92663822421875,8.555882825,27.07268192421875,8.076498525Q28.25945302421875,7.580078125,29.56052212421875,7.580078125Q30.86159232421875,7.580078125,32.04836272421875,8.076498525Q33.19440652421875,8.555882725,34.07834622421875,9.430064725L34.07845212421875,9.429957824999999Q34.183734924218754,9.534078625,34.32069392421875,9.590364025Q34.457652124218754,9.646649325,34.605724824218754,9.646649325Q34.67957882421875,9.646649325,34.75201282421875,9.632241225Q34.82444782421875,9.617832625,34.89267882421875,9.589570025Q34.96091082421875,9.561307424999999,35.02231882421875,9.520276525Q35.083725824218746,9.479245625,35.13594882421875,9.427023125Q35.18817182421875,9.374800725,35.22920182421875,9.313393625Q35.27023282421875,9.251986225,35.29849482421875,9.183754425Q35.32675882421875,9.115522425,35.341166824218746,9.043087925Q35.35557582421875,8.970653025,35.35557582421875,8.896799325Q35.35557582421875,8.746562925,35.29769782421875,8.607922525Q35.239820824218754,8.469282225,35.13299882421875,8.363640325L35.13310382421875,8.363533925Q34.04201892421875,7.284493715,32.62720582421875,6.692684515Q31.16267392421875,6.080078125,29.56052212421875,6.080078125Q27.95837112421875,6.080078125,26.49383952421875,6.692684515Z" fill-rule="evenodd" fill="#222222" fill-opacity="1"/><path d="M30.88091327109375,11.87667225Q31.48886827109375,12.13097655,31.95781417109375,12.59474595L31.95791957109375,12.594639149999999Q32.06320287109375,12.69876005,32.20016097109375,12.75504545Q32.33712007109375,12.81133075,32.48519327109375,12.81133075Q32.55904677109375,12.81133075,32.63148117109375,12.79692245Q32.70391557109375,12.78251435,32.77214767109375,12.75425175Q32.84037967109375,12.72598915,32.901786771093754,12.68495815Q32.96319437109375,12.64392725,33.01541707109375,12.59170475Q33.06763937109375,12.53948225,33.10867027109375,12.47807505Q33.14970107109375,12.41666785,33.17796377109375,12.34843575Q33.20622637109375,12.28020385,33.22063447109375,12.20776915Q33.23504307109375,12.13533445,33.23504357109375,12.06148075Q33.23504397109375,11.91124435,33.17716597109375,11.77260423Q33.11928847109375,11.63396394,33.01246647109375,11.52832204L33.01257177109375,11.52821547Q32.33648017109375,10.8595876407,31.45975537109375,10.49285811Q30.55231717109375,10.11328143,29.56019207109375,10.11328137Q28.56806807109375,10.11328131,27.66062997109375,10.49285814Q26.78390618109375,10.8595873907,26.10781443109375,11.52821541L26.10791987109375,11.52832204Q26.001098691093752,11.63396394,25.94322073109375,11.77260423Q25.88534284109375,11.91124435,25.88534284109375,12.06148075Q25.88534284109375,12.13533445,25.89975107109375,12.20776915Q25.91415918109375,12.28020385,25.94242179109375,12.34843585Q25.97068441109375,12.41666795,26.01171541109375,12.47807505Q26.05274635109375,12.53948225,26.10496884109375,12.59170475Q26.15719136109375,12.64392725,26.21859854109375,12.68495825Q26.28000569109375,12.72598915,26.34823769109375,12.75425175Q26.41646969109375,12.78251435,26.48890439109375,12.79692245Q26.56133908809375,12.81133075,26.63519287109375,12.81133075Q26.78326601109375,12.81133075,26.92022449109375,12.75504565Q27.05718294109375,12.69876025,27.16246593109375,12.59463945L27.16257131109375,12.59474595Q27.63151717109375,12.13097695,28.23947267109375,11.876672150000001Q28.86915017109375,11.61328119,29.56019207109375,11.61328131Q30.25123577109375,11.61328131,30.88091327109375,11.87667225Z" fill-rule="evenodd" fill="#222222" fill-opacity="1"/><path d="M28.2385588909375,14.4939614825C28.1481483279375,14.567035732499999,28.1570268349375,14.6987590825,28.2446259009375,14.7751811125L29.4286651609375,15.8081450125C29.5040001609375,15.8738679125,29.6162943609375,15.8738665125,29.6916277609375,15.8081418125L30.8756027609375,14.7751816525C30.963198460937498,14.6987587225,30.9720709609375,14.5670344825,30.8816618609375,14.4939614525C30.5215592609375,14.2029087725,30.0614510609375,14.0283203125,29.5601104609375,14.0283203125C29.0587695809375,14.0283203125,28.5986614809375,14.2029087725,28.2385588909375,14.4939614825Z" fill="#222222" fill-opacity="1"/></g></svg>