<svg width="24" height="24" viewBox="0 0 24 24" fill="currentColor" xmlns="http://www.w3.org/2000/svg" class="size-18 text-dbx-static-white"><path d="M10.6254 20.3752V6.69549L5.47304 11.8478C4.93607 12.3848 4.0647 12.3848 3.52773 11.8478C2.99076 11.3109 2.99076 10.4395 3.52773 9.90252L11.0277 2.40252L11.1322 2.30877C11.6723 1.86801 12.4695 1.89901 12.973 2.40252L20.473 9.90252L20.5668 10.007C21.0075 10.5471 20.9766 11.3443 20.473 11.8478C19.9695 12.3513 19.1723 12.3823 18.6322 11.9416L18.5277 11.8478L13.3754 6.69549V20.3752C13.3754 21.1346 12.7598 21.7502 12.0004 21.7502C11.241 21.7502 10.6254 21.1346 10.6254 20.3752Z" fill="currentColor"></path></svg>